<svg xmlns="http://www.w3.org/2000/svg" style="width:0; height:0; visibility:hidden;">
    <symbol id="icon-implant" viewBox="0 0 64 64">
      <path d="M49.674 11.259c-.386-7.076-6.442-11.547-9.946-9.927C36.092 3.013 32 2.942 32 2.942s-4.091.07-7.727-1.61c-3.504-1.62-9.561 2.851-9.946 9.927-.345 6.307 2.269 17.656 7.879 18.332v3.472h19.929v-3.525c5.376-1.083 7.875-12.101 7.539-18.279zM39.759 51.424H24.241a.98.98 0 1 0 0 1.961h1.599l.478 2.881h11.366l.479-2.881h1.598a.982.982 0 0 0-.002-1.961zM42.437 43.753H21.564a.98.98 0 1 0 0 1.962h3.086l.478 2.881h13.745l.478-2.881h3.086a.98.98 0 1 0 0-1.962zM43.924 35.807H20.077a.98.98 0 1 0 0 1.961h3.086l.478 2.881H40.36l.479-2.881h3.086a.98.98 0 0 0-.001-1.961zM26.407 59.081A5.957 5.957 0 0 0 32 63a5.958 5.958 0 0 0 5.594-3.919H26.407z"/>
    </symbol></svg>